<svg width="41" height="37" viewBox="0 0 41 37" fill="none" xmlns="http://www.w3.org/2000/svg">
<mask id="path-1-inside-1_28_1900" fill="white">
<path d="M39.5747 4.72401L35.2306 0.635491C34.3304 -0.211686 32.8734 -0.211975 31.973 0.635491L30.5801 1.94651C30.0089 2.48407 29.7903 3.24098 29.9626 3.96024L23.665 5.00609C22.2605 5.24003 20.9862 5.86483 19.9803 6.81246L18.634 8.07882C17.7474 8.91328 17.3861 10.0577 17.5497 11.1449C16.3859 10.9902 15.1801 11.3303 14.2909 12.1671C13.403 13.0023 13.0399 14.1363 13.2042 15.2339C12.0409 15.0798 10.8354 15.4195 9.94688 16.2557C9.08423 17.0676 8.6913 18.1918 8.86101 19.3236C7.70572 19.1695 6.48969 19.5096 5.60293 20.3441L2.50902 23.2553C0.413684 25.2275 0.413607 28.4373 2.5091 30.4105L7.939 35.5209C10.0351 37.4928 13.4452 37.4933 15.5413 35.5208L18.6342 32.6089C19.521 31.7743 19.8823 30.6296 19.7184 29.5422C20.9156 29.7011 22.1122 29.3356 22.9781 28.5206C23.8646 27.6862 24.2258 26.5418 24.0621 25.4544C25.253 25.6127 26.4514 25.2525 27.3221 24.4321C28.2087 23.5977 28.5699 22.4534 28.4063 21.3663C29.6085 21.526 30.8032 21.1565 31.6663 20.3442L33.0113 19.0777C34.0186 18.1305 34.6824 16.931 34.9309 15.6088L36.0421 9.68211C36.8048 9.84393 37.6093 9.63969 38.1817 9.10097L39.5747 7.78995C40.475 6.94263 40.4752 5.5714 39.5747 4.72401ZM17.5482 31.5868L14.4552 34.4986C12.9585 35.9074 10.5223 35.9074 9.02487 34.4986L3.5952 29.3885C2.09836 27.979 2.09836 25.6862 3.59505 24.2774L6.68895 21.3662C7.58716 20.5208 9.04868 20.5208 9.94696 21.3662L17.5483 28.5204C18.4466 29.3658 18.4466 30.7414 17.5482 31.5868ZM21.8921 27.4984C20.9943 28.3434 19.5357 28.347 18.6342 27.4984L11.0328 20.3442C10.1328 19.497 10.1326 18.1252 11.0329 17.2778C11.9323 16.4312 13.3889 16.4309 14.2902 17.2773C14.2904 17.2775 14.2906 17.2776 14.2908 17.2779L21.8919 24.4317L21.8919 24.4318C21.8919 24.4318 21.8919 24.4318 21.8919 24.4319C22.79 25.2777 22.7901 26.6532 21.8921 27.4984ZM26.2359 23.4102C25.3366 24.2576 23.8779 24.2578 22.9782 23.41L15.3766 16.2556C14.476 15.4085 14.4756 14.037 15.3769 13.1893C16.2775 12.3417 17.7333 12.3415 18.6341 13.1893L26.2362 20.3443C27.1343 21.1895 27.1343 22.5647 26.2359 23.4102ZM33.4186 15.3574C33.2252 16.3857 32.709 17.3186 31.9253 18.0555L30.5801 19.3222C29.6819 20.1677 28.2204 20.1677 27.3221 19.3222L19.72 12.1673C18.8218 11.3218 18.8218 9.94634 19.7199 9.10104L21.0664 7.83447C21.8489 7.09729 22.8401 6.61147 23.9323 6.42949L30.8628 5.27856L34.6414 8.83493L33.4186 15.3574ZM38.4887 6.76787L37.0958 8.07889C36.7957 8.36126 36.3103 8.36133 36.0101 8.07889L31.6662 3.99037C31.3662 3.70786 31.3661 3.2511 31.6662 2.96859L33.0592 1.65757C33.3594 1.37513 33.8448 1.3752 34.1448 1.65757L38.4887 5.74609C38.7883 6.02809 38.7893 6.48478 38.4887 6.76787Z"/>
</mask>
<path d="M39.5747 4.72401L35.2306 0.635491C34.3304 -0.211686 32.8734 -0.211975 31.973 0.635491L30.5801 1.94651C30.0089 2.48407 29.7903 3.24098 29.9626 3.96024L23.665 5.00609C22.2605 5.24003 20.9862 5.86483 19.9803 6.81246L18.634 8.07882C17.7474 8.91328 17.3861 10.0577 17.5497 11.1449C16.3859 10.9902 15.1801 11.3303 14.2909 12.1671C13.403 13.0023 13.0399 14.1363 13.2042 15.2339C12.0409 15.0798 10.8354 15.4195 9.94688 16.2557C9.08423 17.0676 8.6913 18.1918 8.86101 19.3236C7.70572 19.1695 6.48969 19.5096 5.60293 20.3441L2.50902 23.2553C0.413684 25.2275 0.413607 28.4373 2.5091 30.4105L7.939 35.5209C10.0351 37.4928 13.4452 37.4933 15.5413 35.5208L18.6342 32.6089C19.521 31.7743 19.8823 30.6296 19.7184 29.5422C20.9156 29.7011 22.1122 29.3356 22.9781 28.5206C23.8646 27.6862 24.2258 26.5418 24.0621 25.4544C25.253 25.6127 26.4514 25.2525 27.3221 24.4321C28.2087 23.5977 28.5699 22.4534 28.4063 21.3663C29.6085 21.526 30.8032 21.1565 31.6663 20.3442L33.0113 19.0777C34.0186 18.1305 34.6824 16.931 34.9309 15.6088L36.0421 9.68211C36.8048 9.84393 37.6093 9.63969 38.1817 9.10097L39.5747 7.78995C40.475 6.94263 40.4752 5.5714 39.5747 4.72401ZM17.5482 31.5868L14.4552 34.4986C12.9585 35.9074 10.5223 35.9074 9.02487 34.4986L3.5952 29.3885C2.09836 27.979 2.09836 25.6862 3.59505 24.2774L6.68895 21.3662C7.58716 20.5208 9.04868 20.5208 9.94696 21.3662L17.5483 28.5204C18.4466 29.3658 18.4466 30.7414 17.5482 31.5868ZM21.8921 27.4984C20.9943 28.3434 19.5357 28.347 18.6342 27.4984L11.0328 20.3442C10.1328 19.497 10.1326 18.1252 11.0329 17.2778C11.9323 16.4312 13.3889 16.4309 14.2902 17.2773C14.2904 17.2775 14.2906 17.2776 14.2908 17.2779L21.8919 24.4317L21.8919 24.4318C21.8919 24.4318 21.8919 24.4318 21.8919 24.4319C22.79 25.2777 22.7901 26.6532 21.8921 27.4984ZM26.2359 23.4102C25.3366 24.2576 23.8779 24.2578 22.9782 23.41L15.3766 16.2556C14.476 15.4085 14.4756 14.037 15.3769 13.1893C16.2775 12.3417 17.7333 12.3415 18.6341 13.1893L26.2362 20.3443C27.1343 21.1895 27.1343 22.5647 26.2359 23.4102ZM33.4186 15.3574C33.2252 16.3857 32.709 17.3186 31.9253 18.0555L30.5801 19.3222C29.6819 20.1677 28.2204 20.1677 27.3221 19.3222L19.72 12.1673C18.8218 11.3218 18.8218 9.94634 19.7199 9.10104L21.0664 7.83447C21.8489 7.09729 22.8401 6.61147 23.9323 6.42949L30.8628 5.27856L34.6414 8.83493L33.4186 15.3574ZM38.4887 6.76787L37.0958 8.07889C36.7957 8.36126 36.3103 8.36133 36.0101 8.07889L31.6662 3.99037C31.3662 3.70786 31.3661 3.2511 31.6662 2.96859L33.0592 1.65757C33.3594 1.37513 33.8448 1.3752 34.1448 1.65757L38.4887 5.74609C38.7883 6.02809 38.7893 6.48478 38.4887 6.76787Z" fill="#FFEEEE"/>
<path d="M39.5747 4.72401L38.204 6.18042L38.2041 6.18046L39.5747 4.72401ZM35.2306 0.635491L36.6014 -0.820918L36.6012 -0.821022L35.2306 0.635491ZM31.973 0.635491L30.6023 -0.820905V-0.820905L31.973 0.635491ZM30.5801 1.94651L31.9508 3.40291V3.40291L30.5801 1.94651ZM29.9626 3.96024L30.2903 5.93321L32.4076 5.58158L31.9076 3.49427L29.9626 3.96024ZM23.665 5.00609L23.3373 3.03311L23.3364 3.03327L23.665 5.00609ZM19.9803 6.81246L21.3506 8.26925L21.3517 8.26823L19.9803 6.81246ZM18.634 8.07882L17.2637 6.62203L17.2633 6.62242L18.634 8.07882ZM17.5497 11.1449L17.2862 13.1275L19.9232 13.4779L19.5274 10.8474L17.5497 11.1449ZM14.2909 12.1671L15.6612 13.6239L15.6616 13.6236L14.2909 12.1671ZM13.2042 15.2339L12.9417 17.2166L15.5753 17.5652L15.1822 14.9379L13.2042 15.2339ZM8.86101 19.3236L8.5966 21.306L11.2333 21.6577L10.8389 19.027L8.86101 19.3236ZM5.60293 20.3441L6.97348 21.8007L6.9736 21.8005L5.60293 20.3441ZM2.50902 23.2553L1.13847 21.7987L1.13824 21.7989L2.50902 23.2553ZM2.5091 30.4105L1.13802 31.8665L1.13838 31.8669L2.5091 30.4105ZM7.939 35.5209L6.56828 36.9773L6.56861 36.9776L7.939 35.5209ZM15.5413 35.5208L16.9119 36.9772L16.9122 36.977L15.5413 35.5208ZM18.6342 32.6089L17.2635 31.1525L17.2633 31.1527L18.6342 32.6089ZM19.7184 29.5422L19.9816 27.5596L17.3443 27.2095L17.7408 29.8402L19.7184 29.5422ZM24.0621 25.4544L24.3257 23.4718L21.6885 23.1213L22.0844 25.752L24.0621 25.4544ZM27.3221 24.4321L25.9514 22.9757L25.9507 22.9764L27.3221 24.4321ZM28.4063 21.3663L28.6697 19.3837L26.0328 19.0334L26.4286 21.6639L28.4063 21.3663ZM31.6663 20.3442L33.0371 21.8006L33.0374 21.8002L31.6663 20.3442ZM33.0113 19.0777L31.6412 17.6206L31.6402 17.6216L33.0113 19.0777ZM34.9309 15.6088L36.8965 15.9783L36.8967 15.9773L34.9309 15.6088ZM36.0421 9.68211L36.4571 7.72566L34.4537 7.30062L34.0763 9.31357L36.0421 9.68211ZM38.1817 9.10097L36.811 7.64457V7.64457L38.1817 9.10097ZM39.5747 7.78995L38.204 6.33349L38.2039 6.33355L39.5747 7.78995ZM17.5482 31.5868L16.1775 30.1304L16.1773 30.1306L17.5482 31.5868ZM14.4552 34.4986L15.826 35.955L15.8261 35.9549L14.4552 34.4986ZM9.02487 34.4986L7.65416 35.955L7.65444 35.9553L9.02487 34.4986ZM3.5952 29.3885L2.22414 30.8445L2.22449 30.8449L3.5952 29.3885ZM3.59505 24.2774L2.2245 22.8209L2.22428 22.8211L3.59505 24.2774ZM6.68895 21.3662L8.05951 22.8228L8.05975 22.8226L6.68895 21.3662ZM9.94696 21.3662L8.57622 22.8226L8.57623 22.8226L9.94696 21.3662ZM17.5483 28.5204L18.919 27.064L18.919 27.064L17.5483 28.5204ZM21.8921 27.4984L20.5214 26.0419L20.5214 26.042L21.8921 27.4984ZM11.0328 20.3442L9.66203 21.8005L9.6621 21.8006L11.0328 20.3442ZM11.0329 17.2778L12.4036 18.7342L12.4037 18.7341L11.0329 17.2778ZM14.2902 17.2773L15.661 15.8209L15.6593 15.8193L14.2902 17.2773ZM14.2908 17.2779L12.9201 18.7343L12.9201 18.7343L14.2908 17.2779ZM21.8919 24.4317L23.2626 22.9753L23.2626 22.9753L21.8919 24.4317ZM21.8919 24.4318H23.8919V23.5677L23.2627 22.9754L21.8919 24.4318ZM21.8919 24.4319H19.8919V25.2956L20.5207 25.8878L21.8919 24.4319ZM26.2359 23.4102L24.8652 21.9538L24.8643 21.9547L26.2359 23.4102ZM22.9782 23.41L24.3498 21.9544L24.3489 21.9536L22.9782 23.41ZM15.3766 16.2556L16.7474 14.7992L16.7469 14.7987L15.3766 16.2556ZM15.3769 13.1893L16.747 14.6463L16.7476 14.6457L15.3769 13.1893ZM26.2362 20.3443L24.8655 21.8007L24.8656 21.8008L26.2362 20.3443ZM33.4186 15.3574L35.3841 15.7269L35.3843 15.7259L33.4186 15.3574ZM31.9253 18.0555L30.5553 16.5984L30.5542 16.5995L31.9253 18.0555ZM30.5801 19.3222L31.9509 20.7786L31.9513 20.7783L30.5801 19.3222ZM19.72 12.1673L18.3492 13.6236L18.3493 13.6237L19.72 12.1673ZM19.7199 9.10104L18.3496 7.64426L18.3491 7.6447L19.7199 9.10104ZM21.0664 7.83447L22.4367 9.29125L22.4378 9.29019L21.0664 7.83447ZM23.9323 6.42949L23.6046 4.45651L23.6036 4.45669L23.9323 6.42949ZM30.8628 5.27856L32.2336 3.82217L31.5123 3.14331L30.5352 3.30558L30.8628 5.27856ZM34.6414 8.83493L36.6071 9.20346L36.8087 8.12829L36.0121 7.37855L34.6414 8.83493ZM38.4887 6.76787L39.8595 8.22427L39.8598 8.22392L38.4887 6.76787ZM37.0958 8.07889L38.4663 9.53546L38.4665 9.53529L37.0958 8.07889ZM36.0101 8.07889L34.6394 9.53528L34.6396 9.53546L36.0101 8.07889ZM31.6662 3.99037L30.2951 5.44642L30.2954 5.44676L31.6662 3.99037ZM31.6663 2.96859L30.2955 1.51219V1.51219L31.6663 2.96859ZM33.0592 1.65757L31.6887 0.200995L31.6885 0.201169L33.0592 1.65757ZM34.1448 1.65757L35.5156 0.201194L35.5154 0.200995L34.1448 1.65757ZM38.4887 5.74609L39.8596 4.28986L39.8595 4.28971L38.4887 5.74609ZM40.9455 3.2676L36.6014 -0.820918L33.8599 2.0919L38.204 6.18042L40.9455 3.2676ZM36.6012 -0.821022C34.9311 -2.39263 32.273 -2.39339 30.6023 -0.820905L33.3438 2.09189C33.3969 2.04184 33.4851 1.99999 33.6018 2C33.7185 2.00001 33.8068 2.04191 33.86 2.092L36.6012 -0.821022ZM30.6023 -0.820905L29.2093 0.490116L31.9508 3.40291L33.3438 2.09189L30.6023 -0.820905ZM29.2093 0.490115C28.1223 1.51324 27.6762 3.00117 28.0176 4.4262L31.9076 3.49427C31.9038 3.47848 31.9053 3.46965 31.9073 3.46303C31.909 3.45728 31.9165 3.43522 31.9508 3.40291L29.2093 0.490115ZM29.635 1.98726L23.3373 3.03311L23.9926 6.97907L30.2903 5.93321L29.635 1.98726ZM23.3364 3.03327C21.5532 3.3303 19.9125 4.12862 18.6089 5.35669L21.3517 8.26823C22.0599 7.60104 22.9679 7.14977 23.9936 6.97891L23.3364 3.03327ZM18.61 5.35568L17.2637 6.62203L20.0043 9.53561L21.3506 8.26925L18.61 5.35568ZM17.2633 6.62242C15.8935 7.91162 15.3119 9.71376 15.5719 11.4424L19.5274 10.8474C19.4604 10.4017 19.6013 9.91493 20.0047 9.53522L17.2633 6.62242ZM17.8132 9.16234C16.0989 8.9345 14.2798 9.43121 12.9202 10.7107L15.6616 13.6236C16.0805 13.2294 16.673 13.046 17.2862 13.1275L17.8132 9.16234ZM12.9206 10.7103C11.552 11.9977 10.9655 13.7879 11.2262 15.5299L15.1822 14.9379C15.1143 14.4847 15.254 14.0069 15.6612 13.6239L12.9206 10.7103ZM13.4667 13.2512C11.7541 13.0244 9.93541 13.52 8.57615 14.7993L11.3176 17.7121C11.7354 17.3189 12.3277 17.1353 12.9417 17.2166L13.4667 13.2512ZM8.57615 14.7993C7.24854 16.0488 6.61364 17.823 6.88312 19.6202L10.8389 19.027C10.769 18.5607 10.9199 18.0864 11.3176 17.7121L8.57615 14.7993ZM9.12541 17.3412C7.42144 17.1139 5.59107 17.6089 4.23226 18.8876L6.9736 21.8005C7.38831 21.4103 7.99 21.2251 8.5966 21.306L9.12541 17.3412ZM4.23238 18.8875L1.13847 21.7987L3.87958 24.7119L6.97348 21.8007L4.23238 18.8875ZM1.13824 21.7989C-1.79622 24.561 -1.79586 29.1039 1.13802 31.8665L3.88018 28.9544C2.62308 27.7707 2.62359 25.8941 3.87981 24.7116L1.13824 21.7989ZM1.13838 31.8669L6.56828 36.9773L9.30972 34.0645L3.87982 28.9541L1.13838 31.8669ZM6.56861 36.9776C9.4345 39.6737 14.0456 39.6747 16.9119 36.9772L14.1706 34.0643C12.8449 35.3119 10.6357 35.3119 9.30939 34.0642L6.56861 36.9776ZM16.9122 36.977L20.0052 34.0651L17.2633 31.1527L14.1703 34.0646L16.9122 36.977ZM20.005 34.0653C21.375 32.7759 21.9567 30.9733 21.6961 29.2442L17.7408 29.8402C17.8079 30.2859 17.667 30.7727 17.2635 31.1525L20.005 34.0653ZM19.4552 31.5248C21.2196 31.759 23.0242 31.2236 24.3489 29.9769L21.6074 27.0642C21.2001 27.4475 20.6117 27.6432 19.9816 27.5596L19.4552 31.5248ZM24.3489 29.9769C25.7186 28.6877 26.3 26.8855 26.0399 25.1568L22.0844 25.752C22.1515 26.1981 22.0105 26.6847 21.6074 27.0642L24.3489 29.9769ZM23.7986 27.437C25.5533 27.6702 27.3614 27.1429 28.6936 25.8878L25.9507 22.9764C25.5413 23.362 24.9527 23.5552 24.3257 23.4718L23.7986 27.437ZM28.6929 25.8885C30.0626 24.5993 30.6441 22.7973 30.3841 21.0688L26.4286 21.6639C26.4956 22.1095 26.3548 22.5961 25.9514 22.9757L28.6929 25.8885ZM28.1429 23.3489C29.9154 23.5844 31.7175 23.0425 33.0371 21.8006L30.2956 18.8878C29.889 19.2705 29.3015 19.4677 28.6697 19.3837L28.1429 23.3489ZM33.0374 21.8002L34.3824 20.5337L31.6402 17.6216L30.2952 18.8881L33.0374 21.8002ZM34.3814 20.5347C35.6882 19.3058 36.5674 17.7292 36.8965 15.9783L32.9654 15.2393C32.7974 16.1329 32.349 16.9551 31.6412 17.6206L34.3814 20.5347ZM36.8967 15.9773L38.0078 10.0506L34.0763 9.31357L32.9652 15.2403L36.8967 15.9773ZM35.627 11.6386C36.9942 11.9286 38.476 11.5705 39.5524 10.5574L36.811 7.64457C36.7427 7.70887 36.6154 7.75923 36.4571 7.72566L35.627 11.6386ZM39.5524 10.5574L40.9454 9.24634L38.2039 6.33355L36.811 7.64457L39.5524 10.5574ZM40.9453 9.2464C42.6846 7.60954 42.6851 4.90477 40.9454 3.26756L38.2041 6.18046C38.2313 6.20612 38.2411 6.22495 38.2447 6.23341C38.2489 6.24302 38.25 6.25068 38.25 6.2569C38.25 6.26312 38.2489 6.27082 38.2447 6.28046C38.241 6.28897 38.2313 6.30783 38.204 6.33349L40.9453 9.2464ZM16.1773 30.1306L13.0843 33.0424L15.8261 35.9549L18.9191 33.0431L16.1773 30.1306ZM13.0845 33.0423C12.358 33.726 11.1229 33.7264 10.3953 33.042L7.65444 35.9553C9.92164 38.0883 13.5589 38.0888 15.826 35.955L13.0845 33.0423ZM10.3956 33.0422L4.96592 27.9321L2.22449 30.8449L7.65416 35.955L10.3956 33.0422ZM4.96627 27.9324C4.30777 27.3123 4.30833 26.3527 4.96582 25.7338L2.22428 22.8211C-0.111617 25.0197 -0.111056 28.6457 2.22414 30.8445L4.96627 27.9324ZM4.9656 25.734L8.05951 22.8228L5.3184 19.9097L2.2245 22.8209L4.9656 25.734ZM8.05975 22.8226C8.11005 22.7752 8.19799 22.7322 8.31793 22.7322C8.43787 22.7322 8.52586 22.7752 8.57622 22.8226L11.3177 19.9098C9.64934 18.3396 6.98651 18.3395 5.31816 19.9099L8.05975 22.8226ZM8.57623 22.8226L16.1776 29.9768L18.919 27.064L11.3177 19.9098L8.57623 22.8226ZM16.1776 29.9768C16.2032 30.0009 16.2126 30.0189 16.2163 30.0275C16.2206 30.0374 16.222 30.046 16.222 30.0536C16.222 30.0612 16.2206 30.0698 16.2163 30.0796C16.2126 30.0883 16.2032 30.1062 16.1775 30.1304L18.9189 33.0433C20.6563 31.4082 20.6563 28.6991 18.919 27.064L16.1776 29.9768ZM20.5214 26.042C20.4695 26.0908 20.3811 26.1334 20.263 26.1335C20.1455 26.1336 20.0576 26.0916 20.0049 26.042L17.2634 28.9548C18.9371 30.53 21.5969 30.5227 23.2628 28.9548L20.5214 26.042ZM20.0049 26.042L12.4036 18.8878L9.6621 21.8006L17.2634 28.9548L20.0049 26.042ZM12.4036 18.8878C12.3765 18.8623 12.3668 18.8435 12.3631 18.835C12.3589 18.8252 12.3577 18.8174 12.3577 18.811C12.3577 18.8046 12.3589 18.7968 12.3631 18.7871C12.3668 18.7785 12.3765 18.7597 12.4036 18.7342L9.66217 15.8214C7.92266 17.4586 7.92319 20.1638 9.66203 21.8005L12.4036 18.8878ZM12.4037 18.7341C12.4562 18.6847 12.5441 18.6427 12.6612 18.6427C12.7783 18.6427 12.8673 18.6846 12.9212 18.7353L15.6593 15.8193C13.9888 14.2507 11.3321 14.2495 9.66211 15.8215L12.4037 18.7341ZM12.9195 18.7337L12.9201 18.7343L15.6616 15.8215L15.6609 15.8209L12.9195 18.7337ZM12.9201 18.7343L20.5211 25.8881L23.2626 22.9753L15.6616 15.8215L12.9201 18.7343ZM20.5211 25.8881L20.5212 25.8882L23.2627 22.9754L23.2626 22.9753L20.5211 25.8881ZM21.8919 24.4318C19.8919 24.4318 19.8919 24.4318 19.8919 24.4318C19.8919 24.4318 19.8919 24.4318 19.8919 24.4318V24.4318C19.8919 24.4318 19.8919 24.4318 19.8919 24.4318C19.8919 24.4318 19.8919 24.4318 19.8919 24.4318C19.8919 24.4318 19.8919 24.4318 19.8919 24.4318C19.8919 24.4318 19.8919 24.4318 19.8919 24.4318C19.8919 24.4318 19.8919 24.4318 19.8919 24.4318V24.4318C19.8919 24.4318 19.8919 24.4318 19.8919 24.4318V24.4318C19.8919 24.4318 19.8919 24.4318 19.8919 24.4318C19.8919 24.4318 19.8919 24.4318 19.8919 24.4318C19.8919 24.4318 19.8919 24.4318 19.8919 24.4318C19.8919 24.4318 19.8919 24.4318 19.8919 24.4318V24.4318C19.8919 24.4318 19.8919 24.4318 19.8919 24.4318C19.8919 24.4318 19.8919 24.4318 19.8919 24.4318V24.4318C19.8919 24.4318 19.8919 24.4318 19.8919 24.4319C19.8919 24.4319 19.8919 24.4319 19.8919 24.4319C19.8919 24.4319 19.8919 24.4319 19.8919 24.4319V24.4319C19.8919 24.4319 19.8919 24.4319 19.8919 24.4319C19.8919 24.4319 19.8919 24.4319 19.8919 24.4319C19.8919 24.4319 19.8919 24.4319 19.8919 24.4319C19.8919 24.4319 19.8919 24.4319 19.8919 24.4319C19.8919 24.4319 19.8919 24.4319 19.8919 24.4319V24.4319C19.8919 24.4319 19.8919 24.4319 19.8919 24.4319V24.4319V24.4319C19.8919 24.4319 19.8919 24.4319 19.8919 24.4319C19.8919 24.4319 19.8919 24.4319 19.8919 24.4319C19.8919 24.4319 19.8919 24.4319 19.8919 24.4319V24.4319C19.8919 24.4319 19.8919 24.4319 19.8919 24.4319C19.8919 24.4319 19.8919 24.4319 19.8919 24.4319V24.4319H23.8919V24.4319C23.8919 24.4319 23.8919 24.4319 23.8919 24.4319C23.8919 24.4319 23.8919 24.4319 23.8919 24.4319V24.4319C23.8919 24.4319 23.8919 24.4319 23.8919 24.4319C23.8919 24.4319 23.8919 24.4319 23.8919 24.4319C23.8919 24.4319 23.8919 24.4319 23.8919 24.4319V24.4319V24.4319C23.8919 24.4319 23.8919 24.4319 23.8919 24.4319V24.4319C23.8919 24.4319 23.8919 24.4319 23.8919 24.4319C23.8919 24.4319 23.8919 24.4319 23.8919 24.4319C23.8919 24.4319 23.8919 24.4319 23.8919 24.4319C23.8919 24.4319 23.8919 24.4319 23.8919 24.4319C23.8919 24.4319 23.8919 24.4319 23.8919 24.4319V24.4319C23.8919 24.4319 23.8919 24.4319 23.8919 24.4319C23.8919 24.4319 23.8919 24.4319 23.8919 24.4319C23.8919 24.4318 23.8919 24.4318 23.8919 24.4318V24.4318C23.8919 24.4318 23.8919 24.4318 23.8919 24.4318C23.8919 24.4318 23.8919 24.4318 23.8919 24.4318V24.4318C23.8919 24.4318 23.8919 24.4318 23.8919 24.4318C23.8919 24.4318 23.8919 24.4318 23.8919 24.4318C23.8919 24.4318 23.8919 24.4318 23.8919 24.4318C23.8919 24.4318 23.8919 24.4318 23.8919 24.4318V24.4318C23.8919 24.4318 23.8919 24.4318 23.8919 24.4318V24.4318C23.8919 24.4318 23.8919 24.4318 23.8919 24.4318C23.8919 24.4318 23.8919 24.4318 23.8919 24.4318C23.8919 24.4318 23.8919 24.4318 23.8919 24.4318C23.8919 24.4318 23.8919 24.4318 23.8919 24.4318C23.8919 24.4318 23.8919 24.4318 23.8919 24.4318V24.4318C23.8919 24.4318 23.8919 24.4318 23.8919 24.4318C23.8919 24.4318 23.8919 24.4318 21.8919 24.4318ZM20.5207 25.8878C20.5465 25.9121 20.556 25.9302 20.5598 25.939C20.5641 25.9491 20.5655 25.9578 20.5655 25.9655C20.5655 25.9732 20.5641 25.9818 20.5599 25.9916C20.5562 26.0002 20.5469 26.018 20.5214 26.0419L23.2628 28.9549C25.0004 27.3195 24.9991 24.6109 23.2632 22.976L20.5207 25.8878ZM24.8643 21.9547C24.8123 22.0037 24.7245 22.0458 24.6073 22.0458C24.4901 22.0458 24.4021 22.0037 24.3498 21.9544L21.6066 24.8655C23.2766 26.4392 25.9378 26.4392 27.6075 24.8658L24.8643 21.9547ZM24.3489 21.9536L16.7474 14.7992L14.0059 17.712L21.6075 24.8664L24.3489 21.9536ZM16.7469 14.7987C16.7197 14.7731 16.7099 14.7543 16.7063 14.7459C16.7022 14.7363 16.701 14.7287 16.701 14.7226C16.701 14.7164 16.7022 14.7088 16.7063 14.6993C16.7099 14.6909 16.7197 14.672 16.747 14.6463L14.0067 11.7324C12.2655 13.37 12.2663 16.0758 14.0064 17.7124L16.7469 14.7987ZM16.7476 14.6457C16.8014 14.5951 16.8896 14.5535 17.0055 14.5535C17.1213 14.5535 17.2095 14.5951 17.2634 14.6457L20.0048 11.7329C18.3338 10.1602 15.6768 10.1605 14.0061 11.7329L16.7476 14.6457ZM17.2634 14.6457L24.8655 21.8007L27.6069 18.8879L20.0048 11.7329L17.2634 14.6457ZM24.8656 21.8008C24.8912 21.8249 24.9005 21.8427 24.9041 21.8513C24.9083 21.861 24.9098 21.8695 24.9097 21.877C24.9097 21.8845 24.9083 21.893 24.9041 21.9029C24.9004 21.9116 24.891 21.9296 24.8652 21.9538L27.6066 24.8667C29.3439 23.2317 29.3443 20.5229 27.6068 18.8878L24.8656 21.8008ZM31.453 14.9878C31.3402 15.5876 31.0394 16.1432 30.5553 16.5984L33.2954 19.5126C34.3786 18.494 35.1102 17.1839 35.3841 15.7269L31.453 14.9878ZM30.5542 16.5995L29.209 17.8662L31.9513 20.7783L33.2964 19.5116L30.5542 16.5995ZM29.2094 17.8659C29.1591 17.9132 29.0711 17.9563 28.9512 17.9563C28.8312 17.9563 28.7432 17.9132 28.6929 17.8658L25.9514 20.7786C27.6198 22.3488 30.2826 22.3489 31.9509 20.7786L29.2094 17.8659ZM28.6929 17.8658L21.0908 10.7109L18.3493 13.6237L25.9514 20.7786L28.6929 17.8658ZM21.0908 10.7109C21.0652 10.6868 21.0558 10.6688 21.0521 10.6602C21.0478 10.6503 21.0464 10.6416 21.0464 10.634C21.0464 10.6264 21.0478 10.6178 21.0521 10.608C21.0558 10.5993 21.0651 10.5815 21.0907 10.5574L18.3491 7.6447C16.612 9.27975 16.6122 11.9886 18.3492 13.6236L21.0908 10.7109ZM21.0902 10.5578L22.4367 9.29125L19.6961 6.37768L18.3496 7.64426L21.0902 10.5578ZM22.4378 9.29019C22.9225 8.83361 23.5473 8.52121 24.261 8.40229L23.6036 4.45669C22.1329 4.70174 20.7753 5.36096 19.6949 6.37874L22.4378 9.29019ZM24.2599 8.40247L31.1905 7.25153L30.5352 3.30558L23.6046 4.45651L24.2599 8.40247ZM29.4921 6.73494L33.2706 10.2913L36.0121 7.37855L32.2336 3.82217L29.4921 6.73494ZM32.6756 8.46641L31.4528 14.9888L35.3843 15.7259L36.6071 9.20346L32.6756 8.46641ZM37.118 5.31148L35.725 6.6225L38.4665 9.53529L39.8595 8.22427L37.118 5.31148ZM35.7252 6.62232C36.1951 6.18023 36.9107 6.18007 37.3807 6.62232L34.6396 9.53546C35.7099 10.5426 37.3963 10.5423 38.4663 9.53546L35.7252 6.62232ZM37.3809 6.62251L33.0369 2.53399L30.2954 5.44676L34.6394 9.53528L37.3809 6.62251ZM33.0373 2.53433C33.5756 3.04122 33.5761 3.91761 33.037 4.42498L30.2955 1.51219C29.1561 2.58458 29.1567 4.37451 30.2951 5.44642L33.0373 2.53433ZM33.037 4.42498L34.4299 3.11396L31.6885 0.201169L30.2955 1.51219L33.037 4.42498ZM34.4297 3.11414C33.9597 3.55638 33.2441 3.55623 32.7743 3.11414L35.5154 0.200995C34.4454 -0.805829 32.759 -0.806132 31.6887 0.200995L34.4297 3.11414ZM32.7741 3.11394L37.118 7.20246L39.8595 4.28971L35.5156 0.201194L32.7741 3.11394ZM37.1178 7.20231C36.5805 6.69651 36.5778 5.82018 37.1176 5.31183L39.8598 8.22392C41.0009 7.14938 40.996 5.35967 39.8596 4.28986L37.1178 7.20231Z" fill="white" mask="url(#path-1-inside-1_28_1900)"/>
</svg>
