<svg width="20" height="18" viewBox="0 0 20 18" fill="none" xmlns="http://www.w3.org/2000/svg">
<path d="M18.7126 15.9606L18.7127 15.9604C18.7975 15.5512 18.6542 15.1452 18.3338 14.8757C17.0097 13.7657 16.2002 12.1815 16.0285 10.485C12.4275 10.2487 9.56952 7.24399 9.56952 3.58337C9.56952 2.79464 9.70586 2.03884 9.95128 1.33453C6.73824 1.39752 4.15291 4.02173 4.15291 7.24998V9.80562C4.15291 11.7669 3.29333 13.6184 1.78771 14.8918C1.46909 15.1645 1.32651 15.5982 1.44226 16.0266L18.7126 15.9606ZM18.7126 15.9606C18.6104 16.4544 18.1132 16.8334 17.5266 16.8334H2.6079C2.04874 16.8334 1.56774 16.4895 1.44231 16.0268L18.7126 15.9606Z" fill="#979797" stroke="#979797"/>
</svg>
