<svg width="65" height="56" viewBox="0 0 65 56" fill="none" xmlns="http://www.w3.org/2000/svg">
<path fill-rule="evenodd" clip-rule="evenodd" d="M31.5 18.6667H10.125C9.18219 18.6667 8.71079 18.6667 8.41789 18.9596C8.125 19.2525 8.125 19.7239 8.125 20.6667V28.3334C8.125 29.2762 8.125 29.7476 8.41789 30.0405C8.71079 30.3334 9.18219 30.3334 10.125 30.3334H16.25V31.6667H31.5V18.6667ZM16.25 33.6667V47C16.25 47.9428 16.25 48.4142 16.5429 48.7071C16.8358 49 17.3072 49 18.25 49H31.5V33.6667H16.25ZM33.5 49H46.75C47.6928 49 48.1642 49 48.4571 48.7071C48.75 48.4142 48.75 47.9428 48.75 47V33.6667H33.5V49ZM48.75 31.6667V30.3334H54.875C55.8178 30.3334 56.2892 30.3334 56.5821 30.0405C56.875 29.7476 56.875 29.2762 56.875 28.3334V20.6667C56.875 19.7239 56.875 19.2525 56.5821 18.9596C56.2892 18.6667 55.8178 18.6667 54.875 18.6667H33.5V31.6667H48.75Z" fill="white"/>
<path d="M51.458 12.4935V7.32188C51.458 5.992 50.1842 5.0325 48.906 5.39958L41.5876 7.50126C40.061 7.93967 38.6474 8.7035 37.4441 9.74022L32.4997 14V16.3334H43.0515C43.2383 16.3334 43.4241 16.3072 43.6036 16.2557L50.0101 14.4158C50.8674 14.1696 51.458 13.3855 51.458 12.4935Z" fill="white"/>
<path d="M13.542 12.4935V7.32188C13.542 5.992 14.8158 5.0325 16.094 5.39958L23.4124 7.50126C24.939 7.93967 26.3526 8.7035 27.5559 9.74022L32.5003 14V16.3334H21.9485C21.7617 16.3334 21.5759 16.3072 21.3964 16.2557L14.9899 14.4158C14.1326 14.1696 13.542 13.3855 13.542 12.4935Z" fill="white"/>
</svg>
