<svg width="45" height="32" viewBox="0 0 45 32" fill="none" xmlns="http://www.w3.org/2000/svg">
<path fill-rule="evenodd" clip-rule="evenodd" d="M21.2649 10.709H7.56641C6.6236 10.709 6.15219 10.709 5.8593 11.0019C5.56641 11.2948 5.56641 11.7662 5.56641 12.709V15.0584C5.56641 16.0012 5.56641 16.4726 5.8593 16.7655C6.15219 17.0584 6.6236 17.0584 7.56641 17.0584H11.1326V17.3283H21.2649V10.709ZM11.1326 19.3283V25.2174C11.1326 26.1602 11.1326 26.6316 11.4255 26.9245C11.7184 27.2174 12.1898 27.2174 13.1326 27.2174H21.2649V19.3283H11.1326ZM23.2649 27.2174H31.3972C32.34 27.2174 32.8114 27.2174 33.1043 26.9245C33.3972 26.6316 33.3972 26.1602 33.3972 25.2174V19.3283H23.2649V27.2174ZM33.3972 17.3283V17.0584H36.9634C37.9062 17.0584 38.3776 17.0584 38.6705 16.7655C38.9634 16.4726 38.9634 16.0012 38.9634 15.0584V12.709C38.9634 11.7662 38.9634 11.2948 38.6705 11.0019C38.3776 10.709 37.9062 10.709 36.9634 10.709H23.2649V17.3283H33.3972Z" fill="#5D5FEF"/>
<path d="M35.252 6.57426V5.59752C35.252 4.3134 34.0591 3.362 32.8071 3.64762L28.9424 4.52932C27.5947 4.83679 26.317 5.39554 25.1763 6.1763L22.2642 8.16936V9.43924H29.4605C29.6102 9.43924 29.7595 9.42244 29.9054 9.38914L33.6968 8.52416C34.6066 8.31659 35.252 7.50744 35.252 6.57426Z" fill="#5D5FEF"/>
<path d="M9.27734 6.57426V5.59752C9.27734 4.3134 10.4702 3.362 11.7222 3.64762L15.5869 4.52932C16.9346 4.83679 18.2123 5.39554 19.353 6.1763L22.265 8.16936V9.43924H15.0688C14.9191 9.43924 14.7698 9.42244 14.6239 9.38914L10.8325 8.52416C9.92269 8.31659 9.27734 7.50744 9.27734 6.57426Z" fill="#5D5FEF"/>
</svg>
