<svg width="27" height="25" viewBox="0 0 27 25" fill="none" xmlns="http://www.w3.org/2000/svg">
<path d="M5.1407 11.6635H6.91839V13.3366H5.1407V11.6635Z" fill="#DFE6F1"/>
<path d="M0.25 22.3064C0.25 23.7917 1.53382 25 3.11191 25H23.9504C25.5287 25 26.8125 23.7917 26.8125 22.3064V7.74108H0.25V22.3064ZM11.0307 10.1987H22.7002C23.1298 10.1987 23.4784 10.5266 23.4784 10.9311C23.4784 11.3355 23.1298 11.6636 22.7002 11.6636H11.0307C10.6008 11.6636 10.2525 11.3355 10.2525 10.9311C10.2525 10.5266 10.6008 10.1987 11.0307 10.1987ZM11.0307 13.3367H22.7002C23.1298 13.3367 23.4784 13.6646 23.4784 14.0691C23.4784 14.4737 23.1298 14.8015 22.7002 14.8015H11.0307C10.6008 14.8015 10.2525 14.4737 10.2525 14.0691C10.2525 13.6646 10.6008 13.3367 11.0307 13.3367ZM3.5843 10.9311C3.5843 10.5266 3.93266 10.1987 4.36249 10.1987H7.69659C8.12642 10.1987 8.47478 10.5266 8.47478 10.9311V14.0691C8.47478 14.4737 8.12642 14.8015 7.69659 14.8015H4.36249C3.93266 14.8015 3.5843 14.4737 3.5843 14.0691V10.9311ZM4.36249 16.4747H22.7002C23.1298 16.4747 23.4784 16.8026 23.4784 17.2071C23.4784 17.6117 23.1298 17.9395 22.7002 17.9395H4.36249C3.93266 17.9395 3.5843 17.6117 3.5843 17.2071C3.5843 16.8026 3.93246 16.4747 4.36249 16.4747ZM4.36249 19.6129H22.7002C23.1298 19.6129 23.4784 19.9407 23.4784 20.3453C23.4784 20.7496 23.1298 21.0777 22.7002 21.0777H4.36249C3.93266 21.0777 3.5843 20.7496 3.5843 20.3453C3.5843 19.9407 3.93246 19.6129 4.36249 19.6129Z" fill="#DFE6F1"/>
<path d="M23.9504 0H3.11191C1.53382 0 0.25 1.20831 0.25 2.69357V6.27597H26.8125V2.69357C26.8125 1.20831 25.5287 0 23.9504 0ZM19.3659 4.60284H7.69638C7.26675 4.60284 6.91819 4.27496 6.91819 3.87041C6.91819 3.46586 7.26675 3.13799 7.69638 3.13799H19.3659C19.7957 3.13799 20.1441 3.46586 20.1441 3.87041C20.1441 4.27496 19.7957 4.60284 19.3659 4.60284Z" fill="#DFE6F1"/>
</svg>
