<svg width="27" height="25" viewBox="0 0 27 25" fill="none" xmlns="http://www.w3.org/2000/svg">
<path d="M26.099 10.8738C26.0984 10.8732 26.0978 10.8727 26.0972 10.8721L15.2607 0.674438C14.7988 0.239563 14.1846 0 13.5314 0C12.8782 0 12.2641 0.239372 11.802 0.674248L0.97115 10.8667C0.967502 10.8702 0.963854 10.8738 0.960206 10.8772C0.0116798 11.775 0.0133011 13.2317 0.964867 14.1272C1.39961 14.5365 1.97379 14.7736 2.5877 14.7984C2.61263 14.8006 2.63776 14.8018 2.66309 14.8018H3.095V22.3066C3.095 23.7917 4.37895 25 5.9574 25H10.197C10.6267 25 10.9753 24.6721 10.9753 24.2676V18.3838C10.9753 17.7061 11.561 17.1549 12.2811 17.1549H14.7817C15.5018 17.1549 16.0876 17.7061 16.0876 18.3838V24.2676C16.0876 24.6721 16.436 25 16.8658 25H21.1054C22.6839 25 23.9678 23.7917 23.9678 22.3066V14.8018H24.3683C25.0213 14.8018 25.6355 14.5624 26.0978 14.1275C27.0503 13.2305 27.0507 11.7714 26.099 10.8738Z" fill="#DFE6F1"/>
</svg>
