<svg width="27" height="25" viewBox="0 0 27 25" fill="none" xmlns="http://www.w3.org/2000/svg">
<path d="M26.0343 23.5352H1.0282C0.598062 23.5352 0.25 23.8627 0.25 24.2676C0.25 24.6724 0.598062 25 1.0282 25H26.0343C26.4644 25 26.8125 24.6724 26.8125 24.2676C26.8125 23.8627 26.4644 23.5352 26.0343 23.5352Z" fill="#7F7FD5"/>
<path d="M7.30566 11.7676H2.58459C2.15446 11.7676 1.8064 12.0952 1.8064 12.5V16.1621H8.08386V12.5C8.08386 12.0952 7.7358 11.7676 7.30566 11.7676Z" fill="#7F7FD5"/>
<path d="M8.08386 17.627H1.8064V22.0703H8.08386V17.627Z" fill="#7F7FD5"/>
<path d="M15.8658 5.9082H11.1967C10.7665 5.9082 10.4185 6.23579 10.4185 6.64062V16.1621H16.644V6.64062C16.644 6.23579 16.296 5.9082 15.8658 5.9082Z" fill="#7F7FD5"/>
<path d="M16.644 17.627H10.4185V22.0703H16.644V17.627Z" fill="#7F7FD5"/>
<path d="M24.4779 0H19.7568C19.3267 0 18.9786 0.327588 18.9786 0.732422V7.37305H25.2561V0.732422C25.2561 0.327588 24.908 0 24.4779 0Z" fill="#7F7FD5"/>
<path d="M25.2561 8.83789H18.9786V22.0703H25.2561V8.83789Z" fill="#7F7FD5"/>
</svg>
