<svg width="27" height="23" viewBox="0 0 27 23" fill="none" xmlns="http://www.w3.org/2000/svg">
<path d="M23.1918 10.9366C21.9238 11.9356 20.3001 12.5365 18.5326 12.5365C17.9208 12.5365 17.3262 12.4644 16.7577 12.329C17.7742 13.8086 18.3666 15.5772 18.3666 17.4757V20.2642C18.3666 21.3072 17.9682 22.2623 17.3104 23H23.9506C25.5287 23 26.8125 21.7728 26.8125 20.2642V17.4757C26.8125 14.7618 25.3759 12.3629 23.1918 10.9366Z" fill="#DFE6F1"/>
<path d="M8.53015 11.0487C11.7169 11.0487 14.3095 8.57059 14.3095 5.52447C14.3095 2.47816 11.7169 0 8.53015 0C5.34339 0 2.75081 2.47816 2.75081 5.52447C2.75081 8.57059 5.34339 11.0487 8.53015 11.0487Z" fill="#DFE6F1"/>
<path d="M18.5323 11.0487C21.7191 11.0487 24.3119 8.57059 24.3119 5.52447C24.3119 2.47816 21.7191 0 18.5323 0C16.9907 0 15.5883 0.579973 14.5509 1.52354C15.3792 2.65908 15.8658 4.03831 15.8658 5.52447C15.8658 7.01043 15.3792 8.38966 14.5509 9.5252C15.5883 10.4688 16.9907 11.0487 18.5323 11.0487Z" fill="#DFE6F1"/>
<path d="M13.1894 10.9366C11.9216 11.9356 10.2979 12.5365 8.53012 12.5365C6.76235 12.5365 5.13867 11.9358 3.87065 10.9366C1.68663 12.3629 0.25 14.7618 0.25 17.4757V20.2642C0.25 21.7728 1.53383 23 3.11211 23H13.9479C15.5262 23 16.81 21.7728 16.81 20.2642V17.4757C16.81 14.7618 15.3736 12.3629 13.1894 10.9366Z" fill="#DFE6F1"/>
</svg>
